<svg xmlns="http://www.w3.org/2000/svg" viewBox="0 0 18 18"><path d="m9 1.1641a0.49 0.49 0 0 0-0.21289 0.048828l-7.3438 3.7363c-0.1205 0.0615-0.1205 0.16311 0 0.22461l3.7031 1.8906-3.7031 1.8887c-0.1205 0.0615-0.1205 0.16116 0 0.22266l3.6992 1.8828-3.6992 1.8945c-0.1205 0.0615-0.1205 0.16116 0 0.22266l7.3438 3.7383a0.4855 0.4855 0 0 0 0.11523 0.027344c-0.35911-0.47745-0.62899-0.9849-0.81836-1.5078l-4.6562-2.3691 2.8164-1.4434 1.5898 0.80859c0.47282-2.6107 2.6715-4.8711 5.8027-4.8711 0.064227 0 0.12768 0.0038172 0.19141 0.0058593l-0.98828-0.50391 3.7168-1.8848c0.1205-0.0615 0.1205-0.16116 0-0.22266l-7.3438-3.7402a0.49 0.49 0 0 0-0.21289-0.048828zm0 1.0625 5.5723 2.8379-2.834 1.4355-2.5254-1.2852a0.468 0.468 0 0 0-0.42578 0l-2.5371 1.291-2.8223-1.4414 5.5723-2.8379z" class="currentColor"/><path d="m13.55 9.0527a4.45 4.45 0 1 0 4.45 4.45 4.45 4.45 0 0 0-4.45-4.45zm2.45 5.2h-1.7v1.7a0.25 0.25 0 0 1-0.25 0.25h-1a0.25 0.25 0 0 1-0.25-0.25v-1.7h-1.7a0.25 0.25 0 0 1-0.25-0.25v-1a0.25 0.25 0 0 1 0.25-0.25h1.7v-1.7a0.25 0.25 0 0 1 0.25-0.25h1a0.25 0.25 0 0 1 0.25 0.25v1.7h1.7a0.25 0.25 0 0 1 0.25 0.25v1a0.25 0.25 0 0 1-0.25 0.25z" class="currentColor"/></svg>