<svg xmlns="http://www.w3.org/2000/svg" viewBox="0 0 21.623 21.624"><g transform="translate(-23.476 -71.782)"><ellipse cx="34.287" cy="82.594" fill="transparent" rx="10.812" ry="10.812"/><path fill="currentColor" stroke-width=".045202" d="m26.754 74.835c-4.2818 4.1581-4.3823 11.01-0.22424 15.292 4.1581 4.2818 11.01 4.3823 15.292 0.22423 4.2741-4.1505 4.3805-10.984 0.24539-15.268a0.32442 0.32442 0 0 0-0.02109-0.02432 0.32442 0.32442 0 0 0-0.02072-0.01993c-4.1603-4.261-10.996-4.3555-15.271-0.20418zm0.45202 0.46548c2.6677-2.5906 6.3865-3.4233 9.7314-2.5226 0.0089 0.01087 0.0184 0.02021 0.02702 0.03142 0.51624 0.69199 1.5138 0.83384 2.3799 0.96515 0.80338 0.46154 1.558 1.0386 2.2359 1.7368 2.9462 3.0339 3.6202 7.4272 2.0547 11.084-0.08532-0.0015-0.17948-0.02094-0.28377-0.06241-0.5437 0.86421-0.76921 1.9767-1.5698 2.688-0.49099 0.42108-1.5035 0.58569-1.766 0.99188-0.35499 0.1262-1.059 0.99281-0.93955 1.3475-3.8964 2.0846-8.8468 1.4447-12.081-1.8853-2.6634-2.7427-3.4685-6.5964-2.4423-10.013 0.28842 0.28303 0.57076 0.70816 1.0131 0.84799 0.58199 0.56954 1.7473 0.17223 1.8844-0.65048 0.19188-1.0608-0.37385 0.40338-0.84171-0.15064 0.02765-0.65236-0.61249-0.15036-0.47848-0.61703-0.4279-0.51579 0.01163-1.2081-0.15036-1.6841 0.16035-0.38496 0.27628-0.8142 0.42522-1.2308 0.24767-0.30341 0.51306-0.59714 0.80092-0.87667zm1.674 4.0807c-0.05412 0.03613-0.1302 0.38824-0.08574 0.57082 0.46741 0.1537 0.23404 1.1063 0.91356 0.9547-0.3669 0.22892 0.06157 1.0663 0.46934 0.7307-0.04615 0.13746 0.2783 0.5794 0.05148 0.82794-0.46294 0.49548-0.0077 1.8054 0.49931 1.0302 0.12549 0.3976 0.08639 1.4184 0.57172 1.5923 0.685 0.38915 1.6116 0.63263 2.3455 0.27128 0.41133 0.53074 1.7439-0.14135 1.5607 0.5612 0.1225 0.34596-0.58478 1.2473 0.4442 1.1008 0.86924 0.18763 1.7018-0.08299 2.4694-0.47372-0.07613-0.0366 0.27822-0.11057 0.19587-0.15786 0.42129-0.53685 0.57685-1.2215 1.15-1.7244-0.12796-0.69329 0.57699-0.83106 0.46941-1.4945-0.39031-0.39677 0.06147-1.439-0.79537-1.7619-0.19899-0.54979-0.10691-1.563-0.48521-2.2362-0.40998-0.46201-1.2955-0.20265-1.6435-0.73926-0.70971 0.02745-1.2747-0.55919-1.9742-0.51348-0.82789-0.22297-1.5813 0.03721-2.0845 0.68758-0.72223 0.51887 0.0466 1.8701-1.1692 2.0181-0.6546 0.39629-1.0416-0.02429-1.6798-0.26361-0.41935-0.34222-1.0315-0.2625-0.74204-0.85629-0.15289-0.77692-0.3525 0.42652-0.43782 0.25677 0.01429-0.31048-0.01062-0.4026-0.0431-0.38092zm5.9736 12.641c-0.23286 0.25108 0.40326 0.28224 0.80929 0.4047 0.55284-0.0675-0.39834-0.14922-0.09348-0.38852-0.46813-0.19726 1.3434-0.54799 0.92876-1.0191-0.44263-0.24914-0.83034 0.66606-1.3308 0.79005-0.15977 0.08518-0.26008 0.15491-0.31379 0.21288zm4.4793-1.9038c-0.11935 0.09197-0.15282 0.23716 0.06747 0.43026 0.15105 0.03969 0.15617-0.10381 0.17535-0.20264 0.69764-0.37398 0.01979-0.42991-0.24284-0.22758z"/></g></svg>