<svg xmlns="http://www.w3.org/2000/svg" viewBox="0 0 21.623 21.624"><g transform="translate(-47.694 -72.587)"><ellipse cx="58.506" cy="83.399" fill="transparent" rx="10.812" ry="10.812"/><path fill="currentColor" stroke-width=".045192" d="m58.506 72.587c-5.9672 0-10.812 4.8444-10.812 10.812 0 5.9673 4.8444 10.812 10.812 10.812 5.9564 0 10.792-4.8273 10.81-10.78 0.0011-0.01066 0.0016-0.02137 0.0017-0.03211 1.7e-5 -0.0095-3.93e-4 -0.01916-0.0012-0.02872-0.01577-5.954-4.8529-10.783-10.81-10.783zm0 0.6487c0.18714 0 0.37284 0.0056 0.55747 0.01564 0.0968 0.08917-0.07923 0.31484 0.08784 0.6542 1.135-0.02554-0.10228 0.59493-0.61871 0.41558-0.56358-0.38444-0.96937 0.51563-1.2615 0.22172 0.72392-0.27565-0.0306-0.82634 0.43584-1.0567-0.38959 0.08536-1.1303 0.54274-1.0423 1.022-0.40623 0.3997-1.5167 0.75373-1.0706 1.324-0.7042 0.03361-0.47485 0.60794-1.0871 0.69009-0.54198 0.50358-0.1231-0.14302-0.4067-0.38939-0.20673-0.12982-1.471 1.0812-0.89365-0.02955-0.07493-0.51375 1.6795-1.6712 0.91519-1.275-0.60006 0.542-1.3727 1.2094-1.3405 2.0314-0.48289-0.22667 0.06641 0.5141-0.12459 0.79652-0.2039 0.92666-1.2242 1.2964-1.8836 1.8274 0.77843-0.12647-0.37243 0.28529-0.51862 0.72261-0.75204 0.5164-1.6969 0.95712-1.7531 2.0728-0.04678 0.10914-0.08828 0.2195-0.12501 0.33026 0.4027-5.2468 4.7788-9.3737 10.13-9.3737zm1.0279 0.05153c0.11401 0.01142 0.22669 0.02709 0.33955 0.04224-0.14538 0.03303-0.27516 0.09702-0.37123 0.21623-0.03386-0.11001-0.01707-0.19348 0.03168-0.25847zm-1.9841 2.7181c0.47187 0.0059 1.0258 0.10542 1.3417 0.60647-1.0044-0.12351-0.29678 0.38071 0.2893 0.32098-0.47937-0.51357 0.48466-1.027 0.53593-0.55072-0.02366 0.48286 1.2705 0.41408 0.58113 0.9549 0.26784 0.43391-0.7044 1.7331 0.32224 1.1897-0.16656-0.85555 0.29197-0.4305 0.90421-0.13388 0.43044 0.12016 0.8049 0.27664 0.67573 0.53003 0.33656-0.12737-0.02323 0.61738 0.82143 0.48231 0.51372 0.64552-1.0168 0.88783-1.2818-0.05322-0.68729-0.13247 0.64128 1.2956 1.1428 1.0503 0.40567-0.77109 0.46783 0.07835 0.59337 0.50764-0.65288 0.31044 0.42458 0.43962 0.1022 0.58493-0.9969 0.18398-1.7417 0.94052-1.5056 2.009 0.51839 0.08547 0.10024 1.4026 0.42233 2.0099 0.42304 0.96414 1.0079-0.87649 0.75217 0.26227 0.437 0.4875 0.06682 0.84827-0.0021 1.4047-0.17344 0.10384-1.0388-0.4454-1.1492-0.77202-0.15453-0.46834-0.29751-0.13924-0.47723 0.0773-0.42354 0.29638 0.4699 0.69648-0.19723 1.0267-0.18795 0.75019 0.74148 0.72955 0.62209-0.02619 0.17479-0.15084 0.17438 1.232 0.6601 0.34969 1.2192-0.83003-0.95235 0.73931 0.14275 0.58028 0.76559 0.25511 0.1043 0.8569-0.46287 0.88395-0.30506 0.17794-0.19717 1.5602 0.4616 1.0719-0.0247 0.38901-0.44488 1.3902-0.88647 1.4245-0.36647-0.13058 0.09002 0.24997-0.26184 0.4084-0.23168 0.21602-0.41562 0.68813-0.33406 0.9473-0.90641 0.2647-1.8642 0.40924-2.8566 0.40924-2.0512 0-3.9581-0.60835-5.5545-1.6517-0.22706-0.28748-0.30223-0.30007-0.26563-0.17992-0.2737-0.19148-0.53759-0.39595-0.7906-0.61281 0.02581-0.03783-0.1829-0.30643-0.25931-0.37419-0.19512-0.31381-1.2279-1.19-0.84466-1.1872 0.55603 1.2078 0.24951-0.22671-0.25635-0.54312 0.07417 0.5458-0.14265 0.28363-0.36531-0.12121-0.81768-0.75888-0.17872-0.05745 0.11698 0.48484-0.65151-0.89469-1.1615-1.899-1.4946-2.9817 0.02376-0.051 0.0521-0.10134 0.09122-0.14993 0.51463 0.88859 1.2451 1.3947 1.2573 2.5028 0.41993 0.68137 0.25071-0.33872 0.49666-0.40037 0.63744 0.55159 0.80862-0.02666 1.3971-0.04603 0.53792 0.50982 0.35044-0.2421 0.81848-0.02955 0.21761 0.31305 1.2404 0.84968 1.3312 0.23102-0.25736 0.08176-0.74756-0.32137-0.39023-0.70065-0.50279-0.62511 0.10195-0.02647 0.30239 0.2534-0.14998-0.39193 0.47945-0.0046 0.68375-0.0929-1.0924 0.24596 0.376 1.5303 0.53889 0.81891-0.3013-0.48635-0.12988-0.75543-0.12923-1.3447-0.68309-0.32514 0.1668-2.2719-0.76146-1.6104-0.05159-0.39292 0.06311-1.2132-0.33702-1.3781 0.29609-0.52762 0.4132 0.67471 0.70825 0.95912 0.36954 0.25679 0.44593-0.70562 0.92406-0.68672 0.0082-0.50696-0.11091-0.93666 0.03168-1.4989 0.08932-0.64361-0.43942-1.9436-1.1318-0.90802-0.36288 1.178-0.22452-0.76856 0.52876-0.46246 0.18516-0.68026 0.36386 0.89332 0.99796 0.155 0.53839-0.37497 0.1474 0.07709 0.3404 0.43036 0.67915 0.41096 0.13682 1.3031 0.05912 1.8422-0.21705 0.79625-0.39164 2.0813 0.49455 2.5188 0.4131-0.65229 0.71252-1.2287 1.3624-1.6344 0.91355-0.26588 0.94618-0.99385 0.95446-1.7438 0.12104-0.44506-0.17254-0.85654-0.20525-1.2995 0.3749-0.69817-0.79278-1.1949-1.4034-0.83326-0.14266-0.51011-1.5231-1.0338-1.601-0.416 0.07721-0.45523-0.318-0.48876-0.72176-0.22046 0.22722-0.20656-0.2818-0.14364-0.07306-0.33449 0.32318 0.28917 0.83399-0.05761 0.19005-0.34167-0.39886-0.52044-0.94715 0.46913-0.53509 0.79821 0.5643 0.5902-0.27638 0.25852-0.51271 0.60056 0.23151 0.42208-0.765 0.4526-0.31759 0.24791 0.09039-0.35127 1.0265-0.64678 0.40839-1.0119 0.45354-0.44502 0.38467-1.2681-0.40375-0.82693 0.22626 0.22696-0.56322 0.87348-0.38854 0.42825 0.50015-0.58918-0.1305-1.309 0.54227-1.8034 0.4292-0.31117 1.3082-1.5949 0.48568-1.5622 0.04518-0.80422 1.7187-0.21632 2.292-0.82524 0.12711-0.0073 0.2756-0.01594 0.43289-0.01395zm3.0099 3.4982c-0.18513-0.0029-0.02373 0.5331 0.09544 0.77414 0.3444 0.13981 0.28407-0.37793 0.21961-0.56044-0.15312-0.15156-0.25335-0.21272-0.31506-0.2137zm-0.09544 1.4452c-0.40939 0.03237-0.38194 1.1763 0.38221 0.98108l0.0849 0.0038c-0.26742-0.3994 0.15899-0.23537 0.09164-0.57015-0.68729-0.04166 0.15016-0.44188-0.35771-0.35349-0.07547-0.0479-0.14254-0.06586-0.20103-0.06124zm6.6728 0.84382c-0.07023 0.87378 1.3298-0.17526 0.92912 0.90633-0.10621 0.31451-0.1775-0.14409-0.26142-0.20568-0.49017 0.51481-0.72664-0.28772-0.6677-0.70065zm-12.402 1.3523c0.04275 0.0088-0.05788 0.24839 0.10516 0.19216-0.49754 0.16235 0.5067 0.55976-0.20187 0.68334-0.63528-0.37577-0.82869 0.70969-1.3143 0.90042 0.16644 0.72212-0.54038 0.35562-0.67784 0.66095v-8.18e-4l-0.02408 0.06377c-0.25781-0.24968 0.03056-0.83695-0.23102-1.2746-0.42775-0.97753 0.54794-1.3959 1.3198-1.0237-0.58818 0.27445 0.36884 0.4714-0.25678 0.60478 0.63838 0.48526 0.46296-0.70677 1.0955-0.62548 0.11679-0.141 0.16597-0.18472 0.1854-0.18076zm12.578 0.70783c0.32675 0.23189-0.50983 1.1634-0.48357 1.6898-0.24319 0.40806-0.33709-0.5105-0.34927-0.63646 0.53392-0.11257 0.33589-0.791 0.83283-1.0533zm-3.3077 0.40249c0.39236 0.05492 0.68676 1.1703 0.07052 1.4414-0.08649-0.04376-0.23936 0.25574-0.11065-0.02956 0.39945-0.20152-0.28276-0.91183-0.03928-1.4085 0.02679-0.0064 0.05325-0.0071 0.0794-0.0033zm-3.9669 0.87719c-0.08274 0.0073-0.18748 0.04036-0.3159 0.1077-0.70154-0.08727-0.48328 0.46311-0.30281 0.69432 0.71618 0.3668 1.1978-0.85245 0.61871-0.80201zm7.6057 0.16006c0.65856 0.57628-0.44936 1.7964-0.9249 2.4069 0.02463 0.49222-1.0744 1.5265-1.2632 0.85649-0.68851 0.18838-1.4003 1.285-2.1691 1.7278-0.31137 0.11413 0.38653-0.33131 0.36616-0.38094 0.25452-0.71622 0.39266-1.4088 0.94433-1.9909 0.25867-0.41928-0.09535 1.1792 0.48441 0.49202-0.80038-0.58818 1.3726-1.0485 0.37672-0.21201 0.47855 0.5637 0.51138-0.63001 0.56381-1.0178-0.33112 0.21515-1.6253 0.18008-0.53847 0.04012 0.47355-0.47018 1.3526 0.49616 1.6636-0.51356-0.01524-0.80806 0.64661-0.82084 0.49666-1.4081z"/></g></svg>