<svg xmlns="http://www.w3.org/2000/svg" viewBox="0 0 18 18"><path d="m9 7.9c-0.98006 0-1.4707 1.1849-0.77778 1.8778 0.26809 0.26809 0.60981 0.35901 0.92806 0.31297 0.50433-0.072957 0.94972-0.48987 0.94972-1.0908 0-0.60751-0.49249-1.1-1.1-1.1z"/><path stroke-width="1.2408" d="m13.888 8.0556c-0.6604-3.6086-5.265-5.4806-8.2667-2.691-3.0944 2.8757-1.3728 7.8126 2.4135 8.5159-0.039507-0.45438 0.00425-0.91499 0.061066-1.2516-3.1059-0.70569-4.0323-5.1836-0.88704-6.8979 0.98456-0.55028 2.1675-0.61706 3.2078-0.1811 1.1147 0.46187 1.9084 1.4168 2.1915 2.5347 0.5123-0.080388 0.56955-0.080255 1.28-0.028934z"/><path stroke-width="1.2408" d="m2.8194 3.773c-4.6851 5.5413-0.63918 13.993 6.5798 13.256-0.39206-0.46578-0.70012-0.90848-0.82663-1.2214-6.0117 8.97e-4 -8.8392-7.5494-4.2361-11.827 4.3747-4.065 11.184-0.92898 11.469 4.5596 0.56112 0.31114 0.6975 0.39547 1.2359 0.87776 0.50243-7.5189-9.1195-11.688-14.222-5.6448z"/><path d="m13.43 8.9784c-3.9648 0-5.9497 4.7933-3.1465 7.5965 2.8032 2.8032 7.5965 0.81834 7.5965-3.1465 0-2.4577-1.9923-4.45-4.45-4.45zm2.913 6.1335c0.0976 0.09762 0.0976 0.25588 0 0.3535l-0.876 0.876c-0.09762 0.09759-0.25588 0.09759-0.3535 0l-1.6835-1.6835-1.6835 1.6835c-0.09763 0.09759-0.25588 0.09759-0.3535 0l-0.876-0.876c-0.0976-0.09763-0.0976-0.25588 0-0.3535l1.6835-1.6835-1.6835-1.6835c-0.0976-0.09762-0.0976-0.25588 0-0.3535l0.876-0.876c0.09763-0.0976 0.25588-0.0976 0.3535 0l1.6835 1.6835 1.6835-1.6835c0.09763-0.0976 0.25588-0.0976 0.3535 0l0.876 0.876c0.0976 0.09762 0.0976 0.25588 0 0.3535l-1.6835 1.6835z"/></svg>