<svg xmlns="http://www.w3.org/2000/svg" viewBox="0 0 22 22"><rect width="2" height="2" x="8.5" y="8" rx="0.5" ry="0.5"/><rect width="2" height="2" x="11.5" y="8" rx="0.5" ry="0.5"/><rect width="2" height="2" x="14.5" y="8" rx="0.5" ry="0.5"/><rect width="2" height="2" x="5.5" y="11" rx="0.5" ry="0.5"/><rect width="2" height="2" x="8.5" y="11" rx="0.5" ry="0.5"/><rect width="2" height="2" x="11.5" y="11" rx="0.5" ry="0.5"/><rect width="2" height="2" x="14.5" y="11" rx="0.5" ry="0.5"/><rect width="2" height="2" x="5.5" y="14" rx="0.5" ry="0.5"/><rect width="2" height="2" x="8.5" y="14" rx="0.5" ry="0.5"/><rect width="2" height="2" x="11.5" y="14" rx="0.5" ry="0.5"/><rect width="2" height="2" x="14.5" y="14" rx="0.5" ry="0.5"/><path d="M19.5,3.5h-3V2a.5.5,0,0,0-.5-.5H15a.5.5,0,0,0-.5.5V3.5h-7V2A.5.5,0,0,0,7,1.5H6a.5.5,0,0,0-.5.5V3.5h-3A.5.5,0,0,0,2,4V19a.5.5,0,0,0,.5.5h17A.5.5,0,0,0,20,19V4A.5.5,0,0,0,19.5,3.5ZM18.5,18H3.5V5h2V6a.5.5,0,0,0,.5.5H7A.5.5,0,0,0,7.5,6V5h7V6a.5.5,0,0,0,.5.5h1a.5.5,0,0,0,.5-.5V5h2Z"/></svg>