<svg xmlns="http://www.w3.org/2000/svg" viewBox="0 0 18 18"><path d="m14 15.375v-1.625l2.25 2.25 0.75-0.75-2.25-2.25h1.625c0.13807 0 0.25-0.11193 0.25-0.25v-0.5c0-0.13807-0.11193-0.25-0.25-0.25h-3.375v3.375c0 0.13807 0.11193 0.25 0.25 0.25h0.5c0.13807 0 0.25-0.11193 0.25-0.25z"/><circle cx="9" cy="9" r="2.5378"/><path d="m4 15.375v-1.625l-2.25 2.25-0.75-0.75 2.25-2.25h-1.625c-0.13807 0-0.25-0.11193-0.25-0.25v-0.5c0-0.13807 0.11193-0.25 0.25-0.25h3.375v3.375c0 0.13807-0.11193 0.25-0.25 0.25h-0.5c-0.13807 0-0.25-0.11193-0.25-0.25z"/><path d="m14 2.625v1.625l2.25-2.25 0.75 0.75-2.25 2.25h1.625c0.13807 0 0.25 0.11193 0.25 0.25v0.5c0 0.13807-0.11193 0.25-0.25 0.25h-3.375v-3.375c0-0.13807 0.11193-0.25 0.25-0.25h0.5c0.13807 0 0.25 0.11193 0.25 0.25z"/><path d="m4 2.625v1.625l-2.25-2.25-0.75 0.75 2.25 2.25h-1.625c-0.13807 0-0.25 0.11193-0.25 0.25v0.5c0 0.13807 0.11193 0.25 0.25 0.25h3.375v-3.375c0-0.13807-0.11193-0.25-0.25-0.25h-0.5c-0.13807 0-0.25 0.11193-0.25 0.25z"/></svg>