<svg xmlns="http://www.w3.org/2000/svg" viewBox="0 0 18 18"><path d="M16 12.9363V15.6863H13.25C13.1837 15.6863 13.1201 15.7126 13.0732 15.7595C13.0263 15.8064 13 15.87 13 15.9363V16.4363C13 16.5026 13.0263 16.5662 13.0732 16.6131C13.1201 16.6599 13.1837 16.6863 13.25 16.6863H17V12.9363C17 12.87 16.9737 12.8064 16.9268 12.7595C16.8799 12.7126 16.8163 12.6863 16.75 12.6863H16.25C16.1837 12.6863 16.1201 12.7126 16.0732 12.7595C16.0263 12.8064 16 12.87 16 12.9363ZM2 15.6863V12.9363C2 12.87 1.97366 12.8064 1.92678 12.7595C1.87989 12.7126 1.8163 12.6863 1.75 12.6863H1.25C1.1837 12.6863 1.12011 12.7126 1.07322 12.7595C1.02634 12.8064 1 12.87 1 12.9363V16.6863H4.75C4.8163 16.6863 4.87989 16.6599 4.92678 16.6131C4.97366 16.5662 5 16.5026 5 16.4363V15.9363C5 15.87 4.97366 15.8064 4.92678 15.7595C4.87989 15.7126 4.8163 15.6863 4.75 15.6863H2ZM13 2.93628V3.43628C13 3.50258 13.0263 3.56617 13.0732 3.61306C13.1201 3.65994 13.1837 3.68628 13.25 3.68628H16V6.43628C16 6.50258 16.0263 6.56617 16.0732 6.61306C16.1201 6.65994 16.1837 6.68628 16.25 6.68628H16.75C16.8163 6.68628 16.8799 6.65994 16.9268 6.61306C16.9737 6.56617 17 6.50258 17 6.43628V2.68628H13.25C13.1837 2.68628 13.1201 2.71262 13.0732 2.7595C13.0263 2.80639 13 2.86998 13 2.93628ZM2 3.68628H4.75C4.8163 3.68628 4.87989 3.65994 4.92678 3.61306C4.97366 3.56617 5 3.50258 5 3.43628V2.93628C5 2.86998 4.97366 2.80639 4.92678 2.7595C4.87989 2.71262 4.8163 2.68628 4.75 2.68628H1V6.43628C1 6.50258 1.02634 6.56617 1.07322 6.61306C1.12011 6.65994 1.1837 6.68628 1.25 6.68628H1.75C1.8163 6.68628 1.87989 6.65994 1.92678 6.61306C1.97366 6.56617 2 6.50258 2 6.43628V3.68628Z"/><path d="M13.75 5.68628H4.25C4.11193 5.68628 4 5.79821 4 5.93628V13.4363C4 13.5744 4.11193 13.6863 4.25 13.6863H13.75C13.8881 13.6863 14 13.5744 14 13.4363V5.93628C14 5.79821 13.8881 5.68628 13.75 5.68628Z"/></svg>