<svg xmlns="http://www.w3.org/2000/svg" viewBox="0 0 18 18"><path d="M3.573 7.57077C3.05 5.67727 4.4 4.86227 4.267 3.24426C3.25749 3.9886 2.43623 4.9589 1.86893 6.07752C1.30163 7.19614 1.00405 8.43202 1 9.68626C1 14.2423 4.9715 16.9573 7.777 17.5518C7.94889 17.5934 8.12375 17.6216 8.3 17.6363C9.3 15.0863 7.4135 12.2418 6.1685 10.3893C5.131 8.84526 4.189 9.79926 3.573 7.57077Z"/><path d="M16.3905 10.2018C15.585 9.89526 14.8945 10.9393 14.8335 8.11976C14.8404 7.37012 15.1392 6.65269 15.6665 6.11976C15.7798 6.04586 15.9024 5.98718 16.031 5.94526C15.9355 5.77076 15.831 5.60326 15.721 5.43626C15.7025 5.44626 15.686 5.45876 15.6665 5.46726C15.0415 5.75926 14.955 5.84526 14.6665 5.46726C14.5955 5.38197 14.5434 5.28266 14.5135 5.17583C14.4835 5.06899 14.4765 4.95704 14.4929 4.8473C14.5092 4.73756 14.5485 4.63251 14.6082 4.53901C14.668 4.44552 14.7468 4.3657 14.8395 4.30476C14.0999 3.49255 13.2007 2.84151 12.1983 2.39227C11.1958 1.94304 10.1115 1.70526 9.013 1.69376C10.027 1.70776 11.2365 2.45876 10.6195 3.65826C10.7125 3.46776 8.606 3.01326 8.3195 3.01326C7.9335 3.01326 9.107 1.56876 8.9995 1.69376C7.85904 1.69387 6.73162 1.9364 5.692 2.40526C6.2385 2.75876 6.8475 2.63526 7.4635 2.78726C7.66002 2.82532 7.847 2.90215 8.0135 3.01326C7.84341 2.90904 7.65773 2.83274 7.4635 2.78726C6.555 2.68226 7.9035 5.17626 7.8525 4.84426C8.1025 3.69826 9.6585 3.25626 10.1355 4.77076C10.1248 5.1842 9.97749 5.58245 9.7165 5.90326C9.0115 6.83027 8.8665 8.48027 8.5165 8.05827C5.2215 6.70827 5.584 8.49377 6.6665 9.68727C8.3985 11.5973 7.5195 9.88276 9.7875 10.8833C11.6115 11.6873 13.807 11.8778 13.2715 12.4833C11.6505 14.3183 11.9915 15.5333 9.125 17.6833C9.3635 17.6768 10.125 17.6008 10.2805 17.5753C12.0276 17.2681 13.6265 16.3984 14.8337 15.0987C16.041 13.7989 16.7904 12.1403 16.968 10.3753C16.7639 10.3675 16.5651 10.3078 16.3905 10.2018Z"/></svg>