<svg xmlns="http://www.w3.org/2000/svg" viewBox="0 0 84.544 64.762"><g transform="translate(-17.952 -29.086)"><path fill="currentColor" d="m17.952 29.086h84.544v64.762h-84.544zm78.075 6.1022-71.667 0.06146 0.0864 52.496h71.581zm-65.707 40.275h8.0563v5.4923h-8.0563zm13.915 0h6.5908v5.4923h-6.5908zm37.47-1.29e-4h7.8979l-0.06569 5.4313-7.8322 0.06486zm-25.021-0.24406h19.04v4.5159h-19.04zm-26.893-7.8104h60.336v4.8821h-60.336zm-0.0617-3.631 8.5236-14.921 6.0445 10.395 15.625-19.711 15.368 19.956 6.0983-10.784 8.5856 15.156h-5.9395l-2.5146-4.4229-2.7941 4.4229h-7.0652l-11.56-13.423-12.147 13.424-7.0734-0.06209-2.6722-4.4939-2.577 4.5549-5.9032-0.09154z"/></g></svg>