<svg xmlns="http://www.w3.org/2000/svg" viewBox="0 0 21.623 21.624"><g transform="translate(-71.913 -72.587)"><ellipse cx="82.725" cy="83.399" fill="transparent" rx="10.812" ry="10.812"/><path fill="currentColor" d="m82.123 72.587c-1.2271 0.25765-2.3958 1.2955-3.322 2.985-0.2761 0.50362-0.52606 1.0626-0.74638 1.6651 1.2422 0.31998 2.6166 0.51943 4.0684 0.56273zm1.2032 0v5.2128c1.4518-0.0433 2.8262-0.24275 4.0684-0.56273-0.22031-0.60249-0.47028-1.1614-0.74638-1.6651-0.92622-1.6895-2.0949-2.7274-3.322-2.985zm-4.3105 0.58775c-1.6151 0.58999-3.0498 1.5549-4.2005 2.79 0.03931 0.02247 0.07691 0.04532 0.11703 0.06751 0.58609 0.32416 1.2466 0.61273 1.9651 0.8592 0.24644-0.68199 0.53002-1.3201 0.84931-1.9025 0.37321-0.68077 0.7988-1.2933 1.269-1.8142zm7.4177 0c0.47023 0.52098 0.89581 1.1335 1.269 1.8142 0.3193 0.58243 0.60284 1.2208 0.84884 1.903 0.71878-0.24651 1.3793-0.53543 1.9656-0.85967 0.04012-0.02218 0.07772-0.04503 0.11703-0.06751-1.1507-1.2351-2.5853-2.2-4.2005-2.79zm-12.4 3.7304c-1.2307 1.6607-2.001 3.6868-2.1207 5.8893h3.9241c0.04651-1.6981 0.28809-3.3042 0.69091-4.7501-0.78648-0.26896-1.5166-0.58836-2.1761-0.95314-0.10857-0.06005-0.21341-0.12316-0.3182-0.186zm17.382 0c-0.10479 0.06284-0.20963 0.12596-0.3182 0.186-0.66002 0.36504-1.3909 0.6846-2.178 0.95362 0.40162 1.446 0.64214 3.0521 0.68856 4.7497h3.9283c-0.1197-2.2025-0.89-4.2286-2.1207-5.8893zm-13.731 1.4861c-0.36762 1.3287-0.59666 2.8207-0.64344 4.4032h5.0817v-3.789c-1.5776-0.04356-3.0751-0.25758-4.4383-0.61419zm10.08 0c-1.3632 0.35646-2.8608 0.57017-4.4383 0.61371v3.7894h5.0817c-0.04677-1.5824-0.27582-3.0744-0.64344-4.4032zm-15.852 5.6117c0.1197 2.2025 0.89 4.2286 2.1207 5.8893 0.10479-0.06284 0.20963-0.12596 0.3182-0.186 0.65952-0.36477 1.3899-0.68425 2.1761-0.95362-0.40275-1.4458-0.64442-3.0518-0.69091-4.7497zm5.1283 0c0.04675 1.5817 0.27565 3.073 0.64297 4.4013 1.3633-0.35746 2.8607-0.57248 4.4388-0.61608v-3.7852zm6.285 0v3.7852c1.578 0.04359 3.0755 0.25862 4.4388 0.61608 0.36732-1.3283 0.59621-2.8196 0.64297-4.4013zm6.2821 0c-0.04644 1.6974-0.28689 3.3033-0.68856 4.7492 0.78676 0.26946 1.5176 0.5891 2.1776 0.95409 0.10857 0.06005 0.21341 0.12316 0.3182 0.186 1.2307-1.6607 2.001-3.6868 2.1207-5.8893zm-7.4854 4.9947c-1.4518 0.0433-2.8262 0.24275-4.0684 0.56273 0.22031 0.60249 0.47028 1.1614 0.74638 1.6651 0.92622 1.6895 2.0949 2.7274 3.322 2.985zm1.2032 0v5.2128c1.2271-0.25765 2.3958-1.2955 3.322-2.985 0.27609-0.50362 0.52606-1.0626 0.74638-1.6651-1.2422-0.31998-2.6166-0.51943-4.0684-0.56273zm5.2251 0.90782c-0.24605 0.68222-0.52953 1.3205-0.84884 1.903-0.37321 0.68077-0.79879 1.2933-1.269 1.8142 1.6151-0.58999 3.0498-1.5549 4.2005-2.79-0.03931-0.02247-0.07692-0.04532-0.11703-0.06751-0.58624-0.32424-1.2468-0.61316-1.9656-0.85967zm-11.654 4.72e-4c-0.71855 0.24647-1.379 0.53504-1.9651 0.8592-0.04012 0.02218-0.07772 0.04504-0.11703 0.06751 1.1507 1.2351 2.5853 2.2 4.2005 2.79-0.47023-0.52098-0.89581-1.1335-1.269-1.8142-0.31929-0.58241-0.60286-1.2205-0.84931-1.9025z"/></g></svg>