<svg xmlns="http://www.w3.org/2000/svg" viewBox="0 0 18 18"><path d="M16.45 8.58279H14.8945C14.7454 7.77639 14.4319 7.00931 13.9735 6.32929L15.076 5.22629C15.1274 5.17518 15.1682 5.11441 15.196 5.04748C15.2239 4.98055 15.2382 4.90878 15.2382 4.83629C15.2382 4.7638 15.2239 4.69203 15.196 4.6251C15.1682 4.55817 15.1274 4.4974 15.076 4.44629L14.2395 3.61029C14.1884 3.55889 14.1276 3.5181 14.0607 3.49027C13.9938 3.46243 13.922 3.4481 13.8495 3.4481C13.777 3.4481 13.7053 3.46243 13.6383 3.49027C13.5714 3.5181 13.5106 3.55889 13.4595 3.61029L12.357 4.71279C11.6771 4.25425 10.91 3.94089 10.1035 3.79229V2.23629C10.1035 2.16377 10.0892 2.09196 10.0613 2.025C10.0335 1.95804 9.99263 1.89726 9.94118 1.84614C9.88974 1.79502 9.8287 1.75458 9.76156 1.72715C9.69443 1.69971 9.62253 1.68583 9.55001 1.68629H8.45001C8.30414 1.68629 8.16425 1.74424 8.0611 1.84738C7.95796 1.95053 7.90001 2.09042 7.90001 2.23629V3.79229C7.09354 3.94089 6.32639 4.25425 5.64651 4.71279L4.54651 3.61029C4.4954 3.55889 4.43463 3.5181 4.3677 3.49027C4.30077 3.46243 4.229 3.4481 4.15651 3.4481C4.08402 3.4481 4.01225 3.46243 3.94532 3.49027C3.87839 3.5181 3.81762 3.55889 3.76651 3.61029L2.92401 4.44629C2.87261 4.4974 2.83182 4.55817 2.80399 4.6251C2.77615 4.69203 2.76183 4.7638 2.76183 4.83629C2.76183 4.90878 2.77615 4.98055 2.80399 5.04748C2.83182 5.11441 2.87261 5.17518 2.92401 5.22629L4.02651 6.32929C3.56815 7.00931 3.25465 7.77639 3.10551 8.58279H1.55001C1.47749 8.58279 1.40568 8.59713 1.33872 8.62499C1.27177 8.65285 1.21098 8.69367 1.15986 8.74512C1.10874 8.79656 1.0683 8.85761 1.04087 8.92474C1.01344 8.99187 0.99955 9.06377 1.00001 9.13629V10.2363C1.00001 10.3822 1.05796 10.5221 1.1611 10.6252C1.26425 10.7283 1.40414 10.7863 1.55001 10.7863H3.10551C3.25439 11.5928 3.56791 12.3599 4.02651 13.0398L2.92401 14.1458C2.87261 14.1969 2.83182 14.2577 2.80399 14.3246C2.77615 14.3915 2.76183 14.4633 2.76183 14.5358C2.76183 14.6083 2.77615 14.68 2.80399 14.747C2.83182 14.8139 2.87261 14.8747 2.92401 14.9258L3.76051 15.7623C3.81162 15.8137 3.87239 15.8545 3.93932 15.8823C4.00625 15.9101 4.07802 15.9245 4.15051 15.9245C4.223 15.9245 4.29477 15.9101 4.3617 15.8823C4.42863 15.8545 4.4894 15.8137 4.54051 15.7623L5.64301 14.6598C6.32289 15.1183 7.09004 15.4317 7.89651 15.5803V17.1363C7.89651 17.2088 7.91085 17.2806 7.93871 17.3476C7.96657 17.4145 8.00739 17.4753 8.05884 17.5264C8.11028 17.5776 8.17133 17.618 8.23846 17.6454C8.30559 17.6729 8.37749 17.6868 8.45001 17.6863H9.55001C9.69588 17.6863 9.83578 17.6283 9.93892 17.5252C10.0421 17.4221 10.1 17.2822 10.1 17.1363V15.5803C10.9065 15.4317 11.6736 15.1183 12.3535 14.6598L13.456 15.7623C13.5071 15.8137 13.5679 15.8545 13.6348 15.8823C13.7018 15.9101 13.7735 15.9245 13.846 15.9245C13.9185 15.9245 13.9903 15.9101 14.0572 15.8823C14.1241 15.8545 14.1849 15.8137 14.236 15.7623L15.0725 14.9258C15.1239 14.8747 15.1647 14.8139 15.1925 14.747C15.2204 14.68 15.2347 14.6083 15.2347 14.5358C15.2347 14.4633 15.2204 14.3915 15.1925 14.3246C15.1647 14.2577 15.1239 14.1969 15.0725 14.1458L13.97 13.0433C14.4286 12.3634 14.7421 11.5963 14.891 10.7898H16.45C16.5225 10.7898 16.5943 10.7755 16.6613 10.7476C16.7283 10.7197 16.789 10.6789 16.8402 10.6275C16.8913 10.576 16.9317 10.515 16.9592 10.4478C16.9866 10.3807 17.0005 10.3088 17 10.2363V9.13629C17.0005 9.06377 16.9866 8.99187 16.9592 8.92474C16.9317 8.85761 16.8913 8.79656 16.8402 8.74512C16.789 8.69367 16.7283 8.65285 16.6613 8.62499C16.5943 8.59713 16.5225 8.58279 16.45 8.58279ZM11.207 9.68629C11.207 10.1228 11.0776 10.5495 10.8351 10.9124C10.5926 11.2754 10.2479 11.5583 9.84459 11.7253C9.44132 11.8923 8.99756 11.936 8.56945 11.8509C8.14133 11.7657 7.74808 11.5555 7.43943 11.2469C7.13077 10.9382 6.92058 10.545 6.83542 10.1169C6.75026 9.68874 6.79397 9.24498 6.96101 8.84171C7.12805 8.43843 7.41093 8.09375 7.77387 7.85124C8.13681 7.60873 8.56351 7.47929 9.00001 7.47929C9.58534 7.47929 10.1467 7.71181 10.5606 8.12571C10.9745 8.5396 11.207 9.10096 11.207 9.68629Z"/></svg>