<svg xmlns="http://www.w3.org/2000/svg" viewBox="0 0 18 18"><path d="M11.179,8.009l.652.64A2.25,2.25,0,1,1,8.659,11.84l-.65-.662a3,3,0,1,0,3.17-3.169Z"/><path d="M11,2a8.977,8.977,0,0,0-2.891.483l.312.315A1.987,1.987,0,0,1,9,4.206V5.3A6.067,6.067,0,1,1,5.3,9H4.206A1.99,1.99,0,0,1,2.8,8.421l-.316-.312A9,9,0,1,0,11,2Z"/><path d="M3.533.485,2.618,2.618.485,3.533a.25.25,0,0,0-.078.407L3.854,7.355a.5.5,0,0,0,.352.145H6.5l3.22,3.28a.75.75,0,0,0,1.06-1.06L7.5,6.5V4.206a.5.5,0,0,0-.145-.352L3.94.407A.25.25,0,0,0,3.533.485Z"/></svg>