<svg xmlns="http://www.w3.org/2000/svg" viewBox="0 0 18 18"><rect width="1" height="3" x="1" y="10"/><rect width="1" height="3" x="1" y="5"/><path d="M2,16V15H1v1.5555A.4445.4445,0,0,0,1.4445,17H3V16Z"/><rect width="3" height="1" x="5" y="16"/><rect width="1" height="3" x="16" y="5"/><path d="M16.5555,1H15V2h1V3h1V1.4445A.4445.4445,0,0,0,16.5555,1Z"/><rect width="3" height="1" x="10" y="1"/><rect width="3" height="1" x="5" y="1"/><path d="M3,1H1.5a.5.5,0,0,0-.5.5V3H2V2H3Z"/><path d="m17.208 15.743-2.5156-2.5156c2.6213-4.32-3.1024-8.7899-6.6634-5.2291-3.561 3.5608 0.90849 9.2848 5.2287 6.6637l2.5156 2.5156c0.38246 0.42804 1.0522 0.42804 1.4347 0 0.14994-0.15244 0.24725-0.34881 0.27772-0.56045 0.05141-0.31895-0.05165-0.64337-0.27771-0.87417zm-8.7442-4.6889c-2.14e-4 -2.3349 2.8225-3.5041 4.4735-1.8534 1.651 1.6507 0.48232 4.4736-1.8526 4.4738h-1.9e-4c-1.4473 1.7e-5 -2.6206-1.1732-2.6207-2.6204z"/></svg>